<?xml version="1.0" encoding="utf-8" ?>
<svg baseProfile="full" height="900px" version="1.1" width="1400px" xmlns="http://www.w3.org/2000/svg" xmlns:ev="http://www.w3.org/2001/xml-events" xmlns:xlink="http://www.w3.org/1999/xlink"><defs /><rect fill="white" height="100%" width="100%" x="0" y="0" /><circle cx="700.0" cy="120" fill="none" r="18" stroke="black" stroke-width="2" /><line stroke="black" stroke-width="2" x1="682.2587994133612" x2="367.7412005866388" y1="123.04134867199522" y2="176.95865132800478" /><line stroke="black" stroke-width="2" x1="717.7412005866388" x2="1032.2587994133612" y1="123.04134867199522" y2="176.95865132800478" /><circle cx="350.0" cy="180" fill="none" r="18" stroke="black" stroke-width="2" /><line stroke="black" stroke-width="2" x1="332.97297297297297" x2="192.02702702702703" y1="185.83783783783784" y2="234.16216216216216" /><line stroke="black" stroke-width="2" x1="367.02702702702703" x2="507.97297297297297" y1="185.83783783783784" y2="234.16216216216216" /><circle cx="1050.0" cy="180" fill="none" r="18" stroke="black" stroke-width="2" /><line stroke="black" stroke-width="2" x1="1032.972972972973" x2="892.027027027027" y1="185.83783783783784" y2="234.16216216216216" /><line stroke="black" stroke-width="2" x1="1067.027027027027" x2="1207.972972972973" y1="185.83783783783784" y2="234.16216216216216" /><circle cx="175.0" cy="240" fill="none" r="18" stroke="black" stroke-width="2" /><line stroke="black" stroke-width="2" x1="160.35279751827878" x2="105.64720248172122" y1="250.46228748694372" y2="289.53771251305625" /><line stroke="black" stroke-width="2" x1="189.9769052980812" x2="250.0230947019188" y1="249.98460353205414" y2="290.0153964679459" /><circle cx="525.0" cy="240" fill="none" r="18" stroke="black" stroke-width="2" /><line stroke="black" stroke-width="2" x1="510.2377148225787" x2="453.7622851774213" y1="250.29926872843347" y2="289.70073127156655" /><line stroke="black" stroke-width="2" x1="539.8720921705359" x2="598.1279078294641" y1="250.14006284354718" y2="289.8599371564528" /><circle cx="875.0" cy="240" fill="none" r="18" stroke="black" stroke-width="2" /><line stroke="black" stroke-width="2" x1="860.1279078294641" x2="801.8720921705359" y1="250.14006284354718" y2="289.8599371564528" /><line stroke="black" stroke-width="2" x1="889.7622851774213" x2="946.2377148225787" y1="250.29926872843347" y2="289.70073127156655" /><circle cx="1225.0" cy="240" fill="none" r="18" stroke="black" stroke-width="2" /><line stroke="black" stroke-width="2" x1="1210.0230947019188" x2="1149.9769052980812" y1="249.98460353205414" y2="290.0153964679459" /><line stroke="black" stroke-width="2" x1="1239.6472024817213" x2="1294.3527975182787" y1="250.46228748694372" y2="289.53771251305625" /><circle cx="91.0" cy="300" fill="none" r="18" stroke="black" stroke-width="2" /><line stroke="black" stroke-width="2" x1="81.73907640230452" x2="64.26092359769548" y1="315.4348726628258" y2="344.5651273371742" /><line stroke="black" stroke-width="2" x1="102.52331919396065" x2="129.47668080603935" y1="313.82798303275274" y2="346.17201696724726" /><circle cx="265.0" cy="300" fill="none" r="18" stroke="black" stroke-width="2" /><line stroke="black" stroke-width="2" x1="255.3690625386818" x2="236.6309374613182" y1="315.2067433599761" y2="344.7932566400239" /><line stroke="black" stroke-width="2" x1="276.2445108559796" x2="301.7554891440204" y1="314.0556385699745" y2="345.9443614300255" /><circle cx="439.0" cy="300" fill="none" r="18" stroke="black" stroke-width="2" /><line stroke="black" stroke-width="2" x1="429.0153964679459" x2="408.9846035320541" y1="314.9769052980812" y2="345.0230947019188" /><line stroke="black" stroke-width="2" x1="449.95176778582845" x2="474.04823221417155" y1="314.28491450325447" y2="345.71508549674553" /><circle cx="613.0" cy="300" fill="none" r="18" stroke="black" stroke-width="2" /><line stroke="black" stroke-width="2" x1="602.67767780146" x2="581.32232219854" y1="314.7461745693427" y2="345.2538254306573" /><line stroke="black" stroke-width="2" x1="623.6445459452954" x2="646.3554540547046" y1="314.5152899254027" y2="345.4847100745973" /><circle cx="787.0" cy="300" fill="none" r="18" stroke="black" stroke-width="2" /><line stroke="black" stroke-width="2" x1="776.3554540547046" x2="753.6445459452954" y1="314.5152899254027" y2="345.4847100745973" /><line stroke="black" stroke-width="2" x1="797.32232219854" x2="818.67767780146" y1="314.7461745693427" y2="345.2538254306573" /><circle cx="961.0" cy="300" fill="none" r="18" stroke="black" stroke-width="2" /><line stroke="black" stroke-width="2" x1="950.0482322141715" x2="925.9517677858285" y1="314.28491450325447" y2="345.71508549674553" /><line stroke="black" stroke-width="2" x1="970.9846035320542" x2="991.0153964679458" y1="314.9769052980812" y2="345.0230947019188" /><circle cx="1135.0" cy="300" fill="none" r="18" stroke="black" stroke-width="2" /><line stroke="black" stroke-width="2" x1="1123.7554891440204" x2="1098.2445108559796" y1="314.0556385699745" y2="345.9443614300255" /><line stroke="black" stroke-width="2" x1="1144.6309374613181" x2="1163.3690625386819" y1="315.2067433599761" y2="344.7932566400239" /><circle cx="1309.0" cy="300" fill="none" r="18" stroke="black" stroke-width="2" /><line stroke="black" stroke-width="2" x1="1297.4766808060394" x2="1270.5233191939606" y1="313.82798303275274" y2="346.17201696724726" /><line stroke="black" stroke-width="2" x1="1318.2609235976954" x2="1335.7390764023046" y1="315.4348726628258" y2="344.5651273371742" /><circle cx="55.0" cy="360" fill="none" r="18" stroke="black" stroke-width="2" /><line stroke="black" stroke-width="2" x1="53.20893305762202" x2="50.79106694237798" y1="377.9106694237798" y2="402.0893305762202" /><line stroke="black" stroke-width="2" x1="64.26092359769548" x2="81.73907640230452" y1="375.4348726628258" y2="404.5651273371742" /><circle cx="141.0" cy="360" fill="none" r="18" stroke="black" stroke-width="2" /><line stroke="black" stroke-width="2" x1="138.62105303836168" x2="135.37894696163832" y1="377.84210221228744" y2="402.15789778771256" /><line stroke="black" stroke-width="2" x1="149.87422629565586" x2="166.12577370434414" y1="375.66039934527504" y2="404.33960065472496" /><circle cx="227.0" cy="360" fill="none" r="18" stroke="black" stroke-width="2" /><line stroke="black" stroke-width="2" x1="224.04081822850358" x2="219.95918177149642" y1="377.75509062897856" y2="402.24490937102144" /><line stroke="black" stroke-width="2" x1="235.47058823529412" x2="250.52941176470588" y1="375.88235294117646" y2="404.11764705882354" /><circle cx="313.0" cy="360" fill="none" r="18" stroke="black" stroke-width="2" /><line stroke="black" stroke-width="2" x1="309.4699095675127" x2="304.5300904324873" y1="377.6504521624366" y2="402.3495478375634" /><line stroke="black" stroke-width="2" x1="321.0498447189992" x2="334.9501552810008" y1="376.0996894379985" y2="403.9003105620015" /><circle cx="399.0" cy="360" fill="none" r="18" stroke="black" stroke-width="2" /><line stroke="black" stroke-width="2" x1="394.9098669190845" x2="389.0901330809155" y1="377.5291417753523" y2="402.4708582246477" /><line stroke="black" stroke-width="2" x1="406.6119383759602" x2="419.3880616240398" y1="376.3112965199148" y2="403.6887034800852" /><circle cx="485.0" cy="360" fill="none" r="18" stroke="black" stroke-width="2" /><line stroke="black" stroke-width="2" x1="480.362072289914" x2="473.637927710086" y1="377.3922289128224" y2="402.6077710871776" /><line stroke="black" stroke-width="2" x1="492.15693387741743" x2="503.84306612258257" y1="376.51600125557866" y2="403.48399874442134" /><circle cx="571.0" cy="360" fill="none" r="18" stroke="black" stroke-width="2" /><line stroke="black" stroke-width="2" x1="565.8277380598058" x2="558.1722619401942" y1="377.2408731339807" y2="402.7591268660193" /><line stroke="black" stroke-width="2" x1="577.6850321743739" x2="588.3149678256261" y1="376.7125804359347" y2="403.2874195640653" /><circle cx="657.0" cy="360" fill="none" r="18" stroke="black" stroke-width="2" /><line stroke="black" stroke-width="2" x1="651.307900211697" x2="642.692099788303" y1="377.07629936490923" y2="402.92370063509077" /><line stroke="black" stroke-width="2" x1="663.1965836848516" x2="672.8034163151484" y1="376.89977368595896" y2="403.10022631404104" /><circle cx="743.0" cy="360" fill="none" r="18" stroke="black" stroke-width="2" /><line stroke="black" stroke-width="2" x1="736.8034163151484" x2="727.1965836848516" y1="376.89977368595896" y2="403.10022631404104" /><line stroke="black" stroke-width="2" x1="748.692099788303" x2="757.307900211697" y1="377.07629936490923" y2="402.92370063509077" /><circle cx="829.0" cy="360" fill="none" r="18" stroke="black" stroke-width="2" /><line stroke="black" stroke-width="2" x1="822.3149678256261" x2="811.6850321743739" y1="376.7125804359347" y2="403.2874195640653" /><line stroke="black" stroke-width="2" x1="834.1722619401942" x2="841.8277380598058" y1="377.2408731339807" y2="402.7591268660193" /><circle cx="915.0" cy="360" fill="none" r="18" stroke="black" stroke-width="2" /><line stroke="black" stroke-width="2" x1="907.8430661225826" x2="896.1569338774174" y1="376.51600125557866" y2="403.48399874442134" /><line stroke="black" stroke-width="2" x1="919.6379277100859" x2="926.3620722899141" y1="377.3922289128224" y2="402.6077710871776" /><circle cx="1001.0" cy="360" fill="none" r="18" stroke="black" stroke-width="2" /><line stroke="black" stroke-width="2" x1="993.3880616240398" x2="980.6119383759602" y1="376.3112965199148" y2="403.6887034800852" /><line stroke="black" stroke-width="2" x1="1005.0901330809155" x2="1010.9098669190845" y1="377.5291417753523" y2="402.4708582246477" /><circle cx="1087.0" cy="360" fill="none" r="18" stroke="black" stroke-width="2" /><line stroke="black" stroke-width="2" x1="1078.9501552810007" x2="1065.0498447189993" y1="376.0996894379985" y2="403.9003105620015" /><line stroke="black" stroke-width="2" x1="1090.5300904324872" x2="1095.4699095675128" y1="377.6504521624366" y2="402.3495478375634" /><circle cx="1173.0" cy="360" fill="none" r="18" stroke="black" stroke-width="2" /><line stroke="black" stroke-width="2" x1="1164.5294117647059" x2="1149.4705882352941" y1="375.88235294117646" y2="404.11764705882354" /><line stroke="black" stroke-width="2" x1="1175.9591817714963" x2="1180.0408182285037" y1="377.75509062897856" y2="402.24490937102144" /><circle cx="1259.0" cy="360" fill="none" r="18" stroke="black" stroke-width="2" /><line stroke="black" stroke-width="2" x1="1250.125773704344" x2="1233.874226295656" y1="375.66039934527504" y2="404.33960065472496" /><line stroke="black" stroke-width="2" x1="1261.3789469616383" x2="1264.6210530383617" y1="377.84210221228744" y2="402.15789778771256" /><circle cx="1345.0" cy="360" fill="none" r="18" stroke="black" stroke-width="2" /><line stroke="black" stroke-width="2" x1="1335.7390764023046" x2="1318.2609235976954" y1="375.4348726628258" y2="404.5651273371742" /><line stroke="black" stroke-width="2" x1="1346.791066942378" x2="1349.208933057622" y1="377.9106694237798" y2="402.0893305762202" /><circle cx="49.0" cy="420" fill="none" r="18" stroke="black" stroke-width="2" /><circle cx="91.0" cy="420" fill="none" r="18" stroke="black" stroke-width="2" /><circle cx="133.0" cy="420" fill="none" r="18" stroke="black" stroke-width="2" /><circle cx="175.0" cy="420" fill="none" r="18" stroke="black" stroke-width="2" /><circle cx="217.0" cy="420" fill="none" r="18" stroke="black" stroke-width="2" /><circle cx="259.0" cy="420" fill="none" r="18" stroke="black" stroke-width="2" /><circle cx="301.0" cy="420" fill="none" r="18" stroke="black" stroke-width="2" /><circle cx="343.0" cy="420" fill="none" r="18" stroke="black" stroke-width="2" /><circle cx="385.0" cy="420" fill="none" r="18" stroke="black" stroke-width="2" /><circle cx="427.0" cy="420" fill="none" r="18" stroke="black" stroke-width="2" /><circle cx="469.0" cy="420" fill="none" r="18" stroke="black" stroke-width="2" /><circle cx="511.0" cy="420" fill="none" r="18" stroke="black" stroke-width="2" /><circle cx="553.0" cy="420" fill="none" r="18" stroke="black" stroke-width="2" /><circle cx="595.0" cy="420" fill="none" r="18" stroke="black" stroke-width="2" /><circle cx="637.0" cy="420" fill="none" r="18" stroke="black" stroke-width="2" /><circle cx="679.0" cy="420" fill="none" r="18" stroke="black" stroke-width="2" /><circle cx="721.0" cy="420" fill="none" r="18" stroke="black" stroke-width="2" /><circle cx="763.0" cy="420" fill="none" r="18" stroke="black" stroke-width="2" /><circle cx="805.0" cy="420" fill="none" r="18" stroke="black" stroke-width="2" /><circle cx="847.0" cy="420" fill="none" r="18" stroke="black" stroke-width="2" /><circle cx="889.0" cy="420" fill="none" r="18" stroke="black" stroke-width="2" /><circle cx="931.0" cy="420" fill="none" r="18" stroke="black" stroke-width="2" /><circle cx="973.0" cy="420" fill="none" r="18" stroke="black" stroke-width="2" /><circle cx="1015.0" cy="420" fill="none" r="18" stroke="black" stroke-width="2" /><circle cx="1057.0" cy="420" fill="none" r="18" stroke="black" stroke-width="2" /><circle cx="1099.0" cy="420" fill="none" r="18" stroke="black" stroke-width="2" /><circle cx="1141.0" cy="420" fill="none" r="18" stroke="black" stroke-width="2" /><circle cx="1183.0" cy="420" fill="none" r="18" stroke="black" stroke-width="2" /><circle cx="1225.0" cy="420" fill="none" r="18" stroke="black" stroke-width="2" /><circle cx="1267.0" cy="420" fill="none" r="18" stroke="black" stroke-width="2" /><circle cx="1309.0" cy="420" fill="none" r="18" stroke="black" stroke-width="2" /><circle cx="1351.0" cy="420" fill="none" r="18" stroke="black" stroke-width="2" /><circle cx="700.0" cy="500" fill="none" r="18" stroke="black" stroke-width="2" /><line stroke="black" stroke-width="2" x1="682.2587994133612" x2="367.7412005866388" y1="503.04134867199525" y2="556.9586513280047" /><line stroke="black" stroke-width="2" x1="717.7412005866388" x2="1032.2587994133612" y1="503.04134867199525" y2="556.9586513280047" /><circle cx="350.0" cy="560" fill="none" r="18" stroke="black" stroke-width="2" /><line stroke="black" stroke-width="2" x1="332.97297297297297" x2="192.02702702702703" y1="565.8378378378378" y2="614.1621621621622" /><line stroke="black" stroke-width="2" x1="367.02702702702703" x2="507.97297297297297" y1="565.8378378378378" y2="614.1621621621622" /><circle cx="1050.0" cy="560" fill="none" r="18" stroke="black" stroke-width="2" /><line stroke="black" stroke-width="2" x1="1032.972972972973" x2="892.027027027027" y1="565.8378378378378" y2="614.1621621621622" /><line stroke="black" stroke-width="2" x1="1067.027027027027" x2="1207.972972972973" y1="565.8378378378378" y2="614.1621621621622" /><circle cx="175.0" cy="620" fill="none" r="18" stroke="black" stroke-width="2" /><line stroke="black" stroke-width="2" x1="160.35279751827878" x2="105.64720248172122" y1="630.4622874869438" y2="669.5377125130562" /><line stroke="black" stroke-width="2" x1="189.9769052980812" x2="250.0230947019188" y1="629.9846035320542" y2="670.0153964679458" /><circle cx="525.0" cy="620" fill="none" r="18" stroke="black" stroke-width="2" /><line stroke="black" stroke-width="2" x1="510.2377148225787" x2="453.7622851774213" y1="630.2992687284335" y2="669.7007312715665" /><line stroke="black" stroke-width="2" x1="539.8720921705359" x2="598.1279078294641" y1="630.1400628435472" y2="669.8599371564528" /><circle cx="875.0" cy="620" fill="none" r="18" stroke="black" stroke-width="2" /><line stroke="black" stroke-width="2" x1="860.1279078294641" x2="801.8720921705359" y1="630.1400628435472" y2="669.8599371564528" /><line stroke="black" stroke-width="2" x1="889.7622851774213" x2="946.2377148225787" y1="630.2992687284335" y2="669.7007312715665" /><circle cx="1225.0" cy="620" fill="none" r="18" stroke="black" stroke-width="2" /><line stroke="black" stroke-width="2" x1="1210.0230947019188" x2="1149.9769052980812" y1="629.9846035320542" y2="670.0153964679458" /><line stroke="black" stroke-width="2" x1="1239.6472024817213" x2="1294.3527975182787" y1="630.4622874869438" y2="669.5377125130562" /><circle cx="91.0" cy="680" fill="none" r="18" stroke="black" stroke-width="2" /><line stroke="black" stroke-width="2" x1="81.73907640230452" x2="64.26092359769548" y1="695.4348726628258" y2="724.5651273371742" /><line stroke="black" stroke-width="2" x1="102.52331919396065" x2="129.47668080603935" y1="693.8279830327527" y2="726.1720169672473" /><circle cx="265.0" cy="680" fill="none" r="18" stroke="black" stroke-width="2" /><line stroke="black" stroke-width="2" x1="255.3690625386818" x2="236.6309374613182" y1="695.2067433599761" y2="724.7932566400239" /><line stroke="black" stroke-width="2" x1="276.2445108559796" x2="301.7554891440204" y1="694.0556385699746" y2="725.9443614300254" /><circle cx="439.0" cy="680" fill="none" r="18" stroke="black" stroke-width="2" /><line stroke="black" stroke-width="2" x1="429.0153964679459" x2="408.9846035320541" y1="694.9769052980812" y2="725.0230947019188" /><line stroke="black" stroke-width="2" x1="449.95176778582845" x2="474.04823221417155" y1="694.2849145032545" y2="725.7150854967455" /><circle cx="613.0" cy="680" fill="none" r="18" stroke="black" stroke-width="2" /><line stroke="black" stroke-width="2" x1="602.67767780146" x2="581.32232219854" y1="694.7461745693428" y2="725.2538254306572" /><line stroke="black" stroke-width="2" x1="623.6445459452954" x2="646.3554540547046" y1="694.5152899254027" y2="725.4847100745973" /><circle cx="787.0" cy="680" fill="none" r="18" stroke="black" stroke-width="2" /><line stroke="black" stroke-width="2" x1="776.3554540547046" x2="753.6445459452954" y1="694.5152899254027" y2="725.4847100745973" /><line stroke="black" stroke-width="2" x1="797.32232219854" x2="818.67767780146" y1="694.7461745693428" y2="725.2538254306572" /><circle cx="961.0" cy="680" fill="none" r="18" stroke="black" stroke-width="2" /><line stroke="black" stroke-width="2" x1="950.0482322141715" x2="925.9517677858285" y1="694.2849145032545" y2="725.7150854967455" /><line stroke="black" stroke-width="2" x1="970.9846035320542" x2="991.0153964679458" y1="694.9769052980812" y2="725.0230947019188" /><circle cx="1135.0" cy="680" fill="none" r="18" stroke="black" stroke-width="2" /><line stroke="black" stroke-width="2" x1="1123.7554891440204" x2="1098.2445108559796" y1="694.0556385699746" y2="725.9443614300254" /><line stroke="black" stroke-width="2" x1="1144.6309374613181" x2="1163.3690625386819" y1="695.2067433599761" y2="724.7932566400239" /><circle cx="1309.0" cy="680" fill="none" r="18" stroke="black" stroke-width="2" /><line stroke="black" stroke-width="2" x1="1297.4766808060394" x2="1270.5233191939606" y1="693.8279830327527" y2="726.1720169672473" /><line stroke="black" stroke-width="2" x1="1318.2609235976954" x2="1335.7390764023046" y1="695.4348726628258" y2="724.5651273371742" /><circle cx="55.0" cy="740" fill="none" r="18" stroke="black" stroke-width="2" /><line stroke="black" stroke-width="2" x1="53.20893305762202" x2="50.79106694237798" y1="757.9106694237798" y2="782.0893305762202" /><line stroke="black" stroke-width="2" x1="64.26092359769548" x2="81.73907640230452" y1="755.4348726628258" y2="784.5651273371742" /><circle cx="141.0" cy="740" fill="none" r="18" stroke="black" stroke-width="2" /><line stroke="black" stroke-width="2" x1="138.62105303836168" x2="135.37894696163832" y1="757.8421022122874" y2="782.1578977877126" /><line stroke="black" stroke-width="2" x1="149.87422629565586" x2="166.12577370434414" y1="755.660399345275" y2="784.339600654725" /><circle cx="227.0" cy="740" fill="none" r="18" stroke="black" stroke-width="2" /><line stroke="black" stroke-width="2" x1="224.04081822850358" x2="219.95918177149642" y1="757.7550906289786" y2="782.2449093710214" /><line stroke="black" stroke-width="2" x1="235.47058823529412" x2="250.52941176470588" y1="755.8823529411765" y2="784.1176470588235" /><circle cx="313.0" cy="740" fill="none" r="18" stroke="black" stroke-width="2" /><line stroke="black" stroke-width="2" x1="309.4699095675127" x2="304.5300904324873" y1="757.6504521624365" y2="782.3495478375635" /><line stroke="black" stroke-width="2" x1="321.0498447189992" x2="334.9501552810008" y1="756.0996894379984" y2="783.9003105620016" /><circle cx="399.0" cy="740" fill="none" r="18" stroke="black" stroke-width="2" /><line stroke="black" stroke-width="2" x1="394.9098669190845" x2="389.0901330809155" y1="757.5291417753523" y2="782.4708582246477" /><line stroke="black" stroke-width="2" x1="406.6119383759602" x2="419.3880616240398" y1="756.3112965199148" y2="783.6887034800852" /><circle cx="485.0" cy="740" fill="none" r="18" stroke="black" stroke-width="2" /><line stroke="black" stroke-width="2" x1="480.362072289914" x2="473.637927710086" y1="757.3922289128225" y2="782.6077710871775" /><line stroke="black" stroke-width="2" x1="492.15693387741743" x2="503.84306612258257" y1="756.5160012555787" y2="783.4839987444213" /><circle cx="571.0" cy="740" fill="none" r="18" stroke="black" stroke-width="2" /><line stroke="black" stroke-width="2" x1="565.8277380598058" x2="558.1722619401942" y1="757.2408731339807" y2="782.7591268660193" /><line stroke="black" stroke-width="2" x1="577.6850321743739" x2="588.3149678256261" y1="756.7125804359347" y2="783.2874195640653" /><circle cx="657.0" cy="740" fill="none" r="18" stroke="black" stroke-width="2" /><line stroke="black" stroke-width="2" x1="651.307900211697" x2="642.692099788303" y1="757.0762993649092" y2="782.9237006350908" /><line stroke="black" stroke-width="2" x1="663.1965836848516" x2="672.8034163151484" y1="756.899773685959" y2="783.100226314041" /><circle cx="743.0" cy="740" fill="none" r="18" stroke="black" stroke-width="2" /><line stroke="black" stroke-width="2" x1="736.8034163151484" x2="727.1965836848516" y1="756.899773685959" y2="783.100226314041" /><line stroke="black" stroke-width="2" x1="748.692099788303" x2="757.307900211697" y1="757.0762993649092" y2="782.9237006350908" /><circle cx="829.0" cy="740" fill="none" r="18" stroke="black" stroke-width="2" /><line stroke="black" stroke-width="2" x1="822.3149678256261" x2="811.6850321743739" y1="756.7125804359347" y2="783.2874195640653" /><line stroke="black" stroke-width="2" x1="834.1722619401942" x2="841.8277380598058" y1="757.2408731339807" y2="782.7591268660193" /><circle cx="915.0" cy="740" fill="none" r="18" stroke="black" stroke-width="2" /><line stroke="black" stroke-width="2" x1="907.8430661225826" x2="896.1569338774174" y1="756.5160012555787" y2="783.4839987444213" /><line stroke="black" stroke-width="2" x1="919.6379277100859" x2="926.3620722899141" y1="757.3922289128225" y2="782.6077710871775" /><circle cx="1001.0" cy="740" fill="none" r="18" stroke="black" stroke-width="2" /><line stroke="black" stroke-width="2" x1="993.3880616240398" x2="980.6119383759602" y1="756.3112965199148" y2="783.6887034800852" /><line stroke="black" stroke-width="2" x1="1005.0901330809155" x2="1010.9098669190845" y1="757.5291417753523" y2="782.4708582246477" /><circle cx="1087.0" cy="740" fill="none" r="18" stroke="black" stroke-width="2" /><line stroke="black" stroke-width="2" x1="1078.9501552810007" x2="1065.0498447189993" y1="756.0996894379984" y2="783.9003105620016" /><line stroke="black" stroke-width="2" x1="1090.5300904324872" x2="1095.4699095675128" y1="757.6504521624365" y2="782.3495478375635" /><circle cx="1173.0" cy="740" fill="none" r="18" stroke="black" stroke-width="2" /><line stroke="black" stroke-width="2" x1="1164.5294117647059" x2="1149.4705882352941" y1="755.8823529411765" y2="784.1176470588235" /><line stroke="black" stroke-width="2" x1="1175.9591817714963" x2="1180.0408182285037" y1="757.7550906289786" y2="782.2449093710214" /><circle cx="1259.0" cy="740" fill="none" r="18" stroke="black" stroke-width="2" /><line stroke="black" stroke-width="2" x1="1250.125773704344" x2="1233.874226295656" y1="755.660399345275" y2="784.339600654725" /><line stroke="black" stroke-width="2" x1="1261.3789469616383" x2="1264.6210530383617" y1="757.8421022122874" y2="782.1578977877126" /><circle cx="1345.0" cy="740" fill="none" r="18" stroke="black" stroke-width="2" /><line stroke="black" stroke-width="2" x1="1335.7390764023046" x2="1318.2609235976954" y1="755.4348726628258" y2="784.5651273371742" /><line stroke="black" stroke-width="2" x1="1346.791066942378" x2="1349.208933057622" y1="757.9106694237798" y2="782.0893305762202" /><circle cx="49.0" cy="800" fill="none" r="18" stroke="black" stroke-width="2" /><circle cx="91.0" cy="800" fill="none" r="18" stroke="black" stroke-width="2" /><circle cx="133.0" cy="800" fill="none" r="18" stroke="black" stroke-width="2" /><circle cx="175.0" cy="800" fill="none" r="18" stroke="black" stroke-width="2" /><circle cx="217.0" cy="800" fill="none" r="18" stroke="black" stroke-width="2" /><circle cx="259.0" cy="800" fill="none" r="18" stroke="black" stroke-width="2" /><circle cx="301.0" cy="800" fill="none" r="18" stroke="black" stroke-width="2" /><circle cx="343.0" cy="800" fill="none" r="18" stroke="black" stroke-width="2" /><circle cx="385.0" cy="800" fill="none" r="18" stroke="black" stroke-width="2" /><circle cx="427.0" cy="800" fill="none" r="18" stroke="black" stroke-width="2" /><circle cx="469.0" cy="800" fill="none" r="18" stroke="black" stroke-width="2" /><circle cx="511.0" cy="800" fill="none" r="18" stroke="black" stroke-width="2" /><circle cx="553.0" cy="800" fill="none" r="18" stroke="black" stroke-width="2" /><circle cx="595.0" cy="800" fill="none" r="18" stroke="black" stroke-width="2" /><circle cx="637.0" cy="800" fill="none" r="18" stroke="black" stroke-width="2" /><circle cx="679.0" cy="800" fill="none" r="18" stroke="black" stroke-width="2" /><circle cx="721.0" cy="800" fill="none" r="18" stroke="black" stroke-width="2" /><circle cx="763.0" cy="800" fill="none" r="18" stroke="black" stroke-width="2" /><circle cx="805.0" cy="800" fill="none" r="18" stroke="black" stroke-width="2" /><circle cx="847.0" cy="800" fill="none" r="18" stroke="black" stroke-width="2" /><circle cx="889.0" cy="800" fill="none" r="18" stroke="black" stroke-width="2" /><circle cx="931.0" cy="800" fill="none" r="18" stroke="black" stroke-width="2" /><circle cx="973.0" cy="800" fill="none" r="18" stroke="black" stroke-width="2" /><circle cx="1015.0" cy="800" fill="none" r="18" stroke="black" stroke-width="2" /><circle cx="1057.0" cy="800" fill="none" r="18" stroke="black" stroke-width="2" /><circle cx="1099.0" cy="800" fill="none" r="18" stroke="black" stroke-width="2" /><circle cx="1141.0" cy="800" fill="none" r="18" stroke="black" stroke-width="2" /><circle cx="1183.0" cy="800" fill="none" r="18" stroke="black" stroke-width="2" /><circle cx="1225.0" cy="800" fill="none" r="18" stroke="black" stroke-width="2" /><circle cx="1267.0" cy="800" fill="none" r="18" stroke="black" stroke-width="2" /><circle cx="1309.0" cy="800" fill="none" r="18" stroke="black" stroke-width="2" /><circle cx="1351.0" cy="800" fill="none" r="18" stroke="black" stroke-width="2" /></svg>